<svg width="64" height="64" viewBox="0 0 64 64" fill="none" xmlns="http://www.w3.org/2000/svg">
<path d="M42.9769 6.823L11.817 14.9255C9.83382 15.4412 8.44946 17.2315 8.44946 19.2807V25.4961V43.5591V47.4581C8.44946 50.4032 11.2316 52.5544 14.0819 51.8133L45.2419 43.7108C47.225 43.1951 48.6094 41.4047 48.6094 39.3556V29.7008V18.5833V11.1782C48.6094 8.2331 45.8272 6.08184 42.9769 6.823Z" fill="white" stroke="black" stroke-width="1.97277"/>
<path d="M55.2177 15.8013H12.9495C10.4642 15.8013 8.44946 17.816 8.44946 20.3013V25.4962V43.5592V48.778C8.44946 51.2632 10.4642 53.278 12.9495 53.278H55.2177C57.703 53.278 59.7177 51.2632 59.7177 48.778V40.1437V29.0262V20.3013C59.7177 17.816 57.703 15.8013 55.2177 15.8013Z" fill="white" stroke="black" stroke-width="1.97277"/>
<rect x="43.0034" y="28.9829" width="18.415" height="11.1134" rx="2" fill="white" stroke="black" stroke-width="1.97277"/>
<circle cx="56.6417" cy="34.5399" r="1.78107" fill="black"/>
<path d="M9.43018 19.9771H25.9827C28.3599 19.9771 30.287 21.9041 30.287 24.2813V44.7986C30.287 47.1758 28.3599 49.1028 25.9827 49.1028H9.43018V19.9771Z" fill="#DCFCFF"/>
<circle cx="13.3244" cy="48.9337" r="10.9924" fill="#00BBCE" stroke="white" stroke-width="2.5694"/>
<path d="M13.3244 42.75C12.5083 42.75 11.8467 43.4116 11.8467 44.2276V47.4566H8.61777C7.80171 47.4566 7.14014 48.1182 7.14014 48.9342C7.14014 49.7503 7.80171 50.4119 8.61777 50.4119H11.8467V53.6408C11.8467 54.4569 12.5083 55.1185 13.3244 55.1185C14.1404 55.1185 14.802 54.4569 14.802 53.6408V50.4119H18.0309C18.847 50.4119 19.5086 49.7503 19.5086 48.9342C19.5086 48.1182 18.847 47.4566 18.031 47.4566H14.802V44.2276C14.802 43.4116 14.1404 42.75 13.3244 42.75Z" fill="white"/>
</svg>
