<svg width="64" height="64" viewBox="0 0 64 64" fill="none" xmlns="http://www.w3.org/2000/svg">
<path d="M8.22196 19.4269L34.5133 4.04958L46.8507 11.2857L19.9449 26.9749L12.3234 24.8264L8.22196 19.4269Z" fill="#C1DBF6" stroke="#374874" stroke-width="0.74563"/>
<path d="M6.7803 55.811L6.7807 55.8024V55.7937V21.8221L14.4641 26.3004L14.5511 26.3512H14.6518H22.187H22.2919L22.3815 26.2964L49.4663 9.73334L51.5583 10.9581L51.5578 45.3311L25.8282 60.4224C23.6553 61.6968 20.7841 62.3448 17.8928 62.3448C15.0014 62.3448 12.1302 61.6968 9.95728 60.4224C7.7051 59.1014 6.7057 57.4107 6.7803 55.811Z" fill="white" stroke="#374874" stroke-width="0.74563"/>
<path d="M9.39585 60.0682C7.53876 58.8069 6.71221 57.271 6.7803 55.811L6.7807 55.8024V55.7937V22.0091L9.39585 24.3576V24.3723V24.4181V24.4643V24.5107V24.5574V24.6043V24.6515V24.6989V24.7466V24.7946V24.8428V24.8912V24.94V24.9889V25.0382V25.0876V25.1373V25.1873V25.2375V25.288V25.3387V25.3896V25.4408V25.4923V25.5439V25.5959V25.648V25.7004V25.753V25.8059V25.859V25.9124V25.9659V26.0197V26.0738V26.128V26.1825V26.2373V26.2922V26.3474V26.4028V26.4584V26.5143V26.5704V26.6267V26.6832V26.7399V26.7969V26.8541V26.9115V26.9691V27.0269V27.085V27.1432V27.2017V27.2604V27.3193V27.3784V27.4377V27.4972V27.557V27.6169V27.677V27.7374V27.7979V27.8587V27.9196V27.9808V28.0421V28.1037V28.1654V28.2274V28.2895V28.3518V28.4144V28.4771V28.54V28.6031V28.6664V28.7299V28.7935V28.8574V28.9214V28.9856V29.0501V29.1146V29.1794V29.2444V29.3095V29.3748V29.4403V29.506V29.5718V29.6379V29.7041V29.7704V29.837V29.9037V29.9706V30.0376V30.1049V30.1723V30.2398V30.3075V30.3754V30.4435V30.5117V30.5801V30.6486V30.7173V30.7862V30.8552V30.9244V30.9937V31.0632V31.1329V31.2027V31.2726V31.3427V31.413V31.4834V31.5539V31.6246V31.6955V31.7665V31.8376V31.9089V31.9803V32.0519V32.1236V32.1954V32.2674V32.3395V32.4118V32.4842V32.5567V32.6294V32.7022V32.7751V32.8482V32.9214V32.9947V33.0682V33.1418V33.2155V33.2893V33.3633V33.4374V33.5116V33.5859V33.6603V33.7349V33.8096V33.8844V33.9593V34.0344V34.1095V34.1848V34.2602V34.3357V34.4113V34.487V34.5629V34.6388V34.7148V34.791V34.8673V34.9436V35.0201V35.0967V35.1733V35.2501V35.327V35.404V35.481V35.5582V35.6355V35.7128V35.7903V35.8678V35.9455V36.0232V36.101V36.179V36.257V36.3351V36.4132V36.4915V36.5698V36.6483V36.7268V36.8054V36.8841V36.9628V37.0417V37.1206V37.1996V37.2786V37.3578V37.437V37.5163V37.5957V37.6751V37.7546V37.8342V37.9138V37.9935V38.0733V38.1532V38.2331V38.313V38.3931V38.4732V38.5533V38.6336V38.7138V38.7942V38.8746V38.955V39.0355V39.1161V39.1967V39.2774V39.3581V39.4389V39.5197V39.6006V39.6815V39.7624V39.8434V39.9245V40.0056V40.0867V40.1679V40.2491V40.3304V40.4117V40.493V40.5744V40.6558V40.7373V40.8188V40.9003V40.9818V41.0634V41.145V41.2267V41.3083V41.39V41.4718V41.5535V41.6353V41.7171V41.7989V41.8807V41.9626V42.0445V42.1264V42.2083V42.2902V42.3722V42.4542V42.5362V42.6182V42.7002V42.7822V42.8642V42.9463V43.0283V43.1104V43.1924V43.2745V43.3566V43.4387V43.5207V43.6028V43.6849V43.767V43.8491V43.9312V44.0132V44.0953V44.1774V44.2594V44.3415V44.4235V44.5056V44.5876V44.6696V44.7517V44.8337V44.9156V44.9976V45.0796V45.1615V45.2434V45.3253V45.4072V45.4891V45.5709V45.6527V45.7345V45.8163V45.8981V45.9798V46.0615V46.1432V46.2248V46.3064V46.388V46.4695V46.5511V46.6325V46.714V46.7954V46.8768V46.9581V47.0394V47.1207V47.2019V47.2831V47.3642V47.4453V47.5264V47.6074V47.6884V47.7693V47.8502V47.931V48.0117V48.0925V48.1731V48.2538V48.3343V48.4148V48.4953V48.5757V48.656V48.7363V48.8165V48.8967V48.9768V49.0568V49.1368V49.2167V49.2966V49.3763V49.4561V49.5357V49.6153V49.6948V49.7742V49.8536V49.9329V50.0121V50.0913V50.1703V50.2493V50.3282V50.4071V50.4858V50.5645V50.6431V50.7216V50.8001V50.8784V50.9567V51.0349V51.113V51.191V51.2689V51.3467V51.4245V51.5021V51.5797V51.6571V51.7345V51.8118V51.8889V51.966V52.043V52.1199V52.1966V52.2733V52.3499V52.4264V52.5027V52.579V52.6551V52.7312V52.8071V52.883V52.9587V53.0343V53.1098V53.1852V53.2605V53.3356V53.4107V53.4856V53.5604V53.6351V53.7097V53.7842V53.8585V53.9327V54.0068V54.0808V54.1546V54.2283V54.3019V54.3754V54.4487V54.5219V54.595V54.6679V54.7407V54.8134V54.8859V54.9583V55.0306V55.1027V55.1747V55.2466V55.3183V55.3898V55.4613V55.5326V55.6037V55.6747V55.7455V55.8162V55.8868V55.9572V56.0275V56.0976V56.1675V56.2373V56.307V56.3765V56.4458V56.515V56.584V56.6529V56.7216V56.7901V56.8585V56.9267V56.9948V57.0627V57.1304V57.198V57.2654V57.3326V57.3997V57.4666V57.5333V57.5999V57.6662V57.7324V57.7985V57.8643V57.93V57.9955V58.0608V58.126V58.1909V58.2557V58.3203V58.3847V58.449V58.513V58.5769V58.6405V58.704V58.7673V58.8304V58.8933V58.9561V59.0186V59.0809V59.1431V59.205V59.2668V59.3283V59.3897V59.4508V59.5118V59.5726V59.6331V59.6935V59.7536V59.8135V59.8733V59.9328V59.9921V60.0512V60.0682Z" fill="#FBDBD0" stroke="#374874" stroke-width="0.74563"/>
<path d="M11.3607 24.1094V51.2414L11.1682 60.5742L10.0018 60.0159C9.44544 59.745 9.04735 59.3892 8.91785 59.2452V23.6012L11.3607 24.1094Z" fill="white"/>
<path d="M10.0902 16.6011L35.6828 1.5907L38.8521 3.44952L13.2595 18.46C10.7006 19.9608 10.7006 22.3941 13.2595 23.8949C15.8183 25.3957 19.9671 25.3957 22.5259 23.8949L48.1185 8.88444L51.2878 10.7433L25.6952 25.7537C21.386 28.2811 14.3994 28.2811 10.0902 25.7537C5.78098 23.2263 5.78099 19.1286 10.0902 16.6011Z" fill="white" stroke="#374874" stroke-width="0.74563"/>
<path d="M46.6887 53.6198L46.6887 53.6198C45.2155 52.7557 44.5039 51.6636 44.4567 50.6098L44.4544 50.5575V50.5301H44.4544L44.4543 50.5271C44.4541 50.5066 44.4541 50.4861 44.4543 50.4656L44.4544 50.4656V50.4626V46.4332H48.9726H49.0048L49.0359 46.425C51.0782 45.8906 53.4323 45.8906 55.4747 46.425L55.5058 46.4332H55.5379H60.0505V50.3146V50.3227L60.051 50.3308C60.1255 51.4721 59.424 52.68 57.8218 53.6198C56.297 54.5141 54.2829 54.9685 52.2553 54.9685C50.2277 54.9685 48.2135 54.5141 46.6887 53.6198Z" fill="#FBDBD0" stroke="#374874" stroke-width="0.5"/>
<circle cx="6.59999" cy="6.59999" r="6.34999" transform="matrix(0.862582 0.505917 -0.862582 0.505917 52.2553 39.5051)" fill="white" stroke="#374874" stroke-width="0.5"/>
<path d="M55.8096 45.8014C56.0794 45.9596 56.2716 46.1498 56.3864 46.372C56.4955 46.5908 56.4983 46.8247 56.395 47.0738C56.2917 47.3229 56.0593 47.5636 55.6977 47.7959L56.3864 48.1998L56.0076 48.4219L55.3103 48.013C54.7536 48.2856 54.174 48.4304 53.5713 48.4472C52.963 48.4607 52.4321 48.3479 51.9787 48.1089L52.6244 47.7302C52.9056 47.8682 53.2442 47.9456 53.6402 47.9625C54.0362 47.9726 54.4265 47.8918 54.811 47.7201L52.4264 46.3215C51.9386 46.4864 51.5253 46.6076 51.1867 46.685C50.8538 46.7591 50.5009 46.781 50.1278 46.7507C49.7491 46.717 49.3789 46.5941 49.0173 46.3821C48.5639 46.1162 48.3487 45.8048 48.3717 45.448C48.3889 45.0878 48.6557 44.7428 49.1723 44.4129L48.4491 43.9888L48.8279 43.7666L49.5597 44.1958C50.0819 43.9433 50.6185 43.8104 51.1695 43.7969C51.7205 43.7834 52.2198 43.8777 52.6674 44.0797L52.0304 44.4533C51.7836 44.349 51.4794 44.2951 51.1178 44.2917C50.762 44.285 50.4148 44.354 50.0762 44.4987L52.3747 45.8469C52.8453 45.6853 53.2528 45.5675 53.5972 45.4934C53.9415 45.4126 54.3031 45.3891 54.6819 45.4227C55.0607 45.4564 55.4366 45.5826 55.8096 45.8014ZM49.6027 46.0084C49.9241 46.1969 50.2656 46.2828 50.6271 46.266C50.9887 46.2424 51.4077 46.1549 51.884 46.0034L49.6716 44.7058C49.3444 44.9178 49.1665 45.14 49.1378 45.3723C49.1149 45.6011 49.2698 45.8132 49.6027 46.0084ZM55.207 47.508C55.5514 47.2792 55.7207 47.0452 55.7149 46.8062C55.7035 46.5639 55.5428 46.3518 55.2328 46.17C54.9057 45.9782 54.5585 45.8923 54.1912 45.9125C53.8296 45.9293 53.4049 46.0135 52.9171 46.165L55.207 47.508Z" fill="#374874"/>
<path d="M46.6887 47.8481L46.6887 47.8481C45.2155 46.9841 44.5039 45.892 44.4567 44.8382L44.4544 44.7859V44.7585H44.4544L44.4543 44.7554C44.4541 44.7349 44.4541 44.7144 44.4543 44.694L44.4544 44.694V44.6909V40.6615H48.9726H49.0048L49.0359 40.6534C51.0782 40.119 53.4323 40.119 55.4747 40.6534L55.5058 40.6615H55.5379H60.0505V44.5429V44.551L60.051 44.5592C60.1255 45.7004 59.424 46.9084 57.8218 47.8481C56.297 48.7424 54.2829 49.1968 52.2553 49.1968C50.2277 49.1968 48.2135 48.7424 46.6887 47.8481Z" fill="#FBDBD0" stroke="#374874" stroke-width="0.5"/>
<circle cx="6.59999" cy="6.59999" r="6.34999" transform="matrix(0.862582 0.505917 -0.862582 0.505917 52.2553 33.7334)" fill="white" stroke="#374874" stroke-width="0.5"/>
<path d="M55.8096 40.0298C56.0794 40.188 56.2716 40.3782 56.3864 40.6003C56.4955 40.8191 56.4983 41.0531 56.395 41.3022C56.2917 41.5512 56.0593 41.7919 55.6977 42.0242L56.3864 42.4281L56.0076 42.6503L55.3103 42.2413C54.7536 42.514 54.174 42.6587 53.5713 42.6755C52.963 42.689 52.4321 42.5762 51.9787 42.3372L52.6244 41.9585C52.9056 42.0966 53.2442 42.174 53.6402 42.1908C54.0362 42.2009 54.4265 42.1201 54.811 41.9484L52.4264 40.5498C51.9386 40.7148 51.5253 40.8359 51.1867 40.9134C50.8538 40.9874 50.5009 41.0093 50.1278 40.979C49.7491 40.9453 49.3789 40.8225 49.0173 40.6104C48.5639 40.3445 48.3487 40.0331 48.3717 39.6763C48.3889 39.3161 48.6557 38.9711 49.1723 38.6412L48.4491 38.2171L48.8279 37.9949L49.5597 38.4241C50.0819 38.1717 50.6185 38.0387 51.1695 38.0252C51.7205 38.0118 52.2198 38.106 52.6674 38.308L52.0304 38.6816C51.7836 38.5773 51.4794 38.5234 51.1178 38.5201C50.762 38.5133 50.4148 38.5823 50.0762 38.7271L52.3747 40.0752C52.8453 39.9136 53.2528 39.7958 53.5972 39.7218C53.9415 39.641 54.3031 39.6174 54.6819 39.6511C55.0607 39.6847 55.4366 39.811 55.8096 40.0298ZM49.6027 40.2368C49.9241 40.4253 50.2656 40.5111 50.6271 40.4943C50.9887 40.4707 51.4077 40.3832 51.884 40.2317L49.6716 38.9341C49.3444 39.1462 49.1665 39.3683 49.1378 39.6006C49.1149 39.8295 49.2698 40.0415 49.6027 40.2368ZM55.207 41.7364C55.5514 41.5075 55.7207 41.2735 55.7149 41.0345C55.7035 40.7922 55.5428 40.5801 55.2328 40.3984C54.9057 40.2065 54.5585 40.1206 54.1912 40.1408C53.8296 40.1577 53.4049 40.2418 52.9171 40.3933L55.207 41.7364Z" fill="#374874"/>
<path d="M33.3021 61.1189L33.3021 61.1189C31.8289 60.2548 31.1173 59.1628 31.0701 58.1089L31.0678 58.0567V58.0292H31.0678L31.0678 58.0262C31.0675 58.0057 31.0675 57.9852 31.0678 57.9647L31.0678 57.9647V57.9617V53.9323H35.586H35.6182L35.6493 53.9241C37.6916 53.3897 40.0458 53.3897 42.0881 53.9241L42.1192 53.9323H42.1514H46.6639V57.8137V57.8218L46.6644 57.83C46.7389 58.9712 46.0374 60.1792 44.4353 61.1189C42.9104 62.0132 40.8963 62.4676 38.8687 62.4676C36.8411 62.4676 34.8269 62.0132 33.3021 61.1189Z" fill="#FBDBD0" stroke="#374874" stroke-width="0.5"/>
<circle cx="6.59999" cy="6.59999" r="6.34999" transform="matrix(0.862582 0.505917 -0.862582 0.505917 38.8687 47.0042)" fill="white" stroke="#374874" stroke-width="0.5"/>
<path d="M42.423 53.3005C42.6928 53.4588 42.885 53.6489 42.9998 53.8711C43.1089 54.0899 43.1117 54.3238 43.0084 54.5729C42.9051 54.822 42.6727 55.0627 42.3111 55.295L42.9998 55.6989L42.621 55.9211L41.9237 55.5121C41.367 55.7847 40.7874 55.9295 40.1848 55.9463C39.5764 55.9598 39.0455 55.847 38.5921 55.608L39.2378 55.2293C39.519 55.3673 39.8576 55.4448 40.2536 55.4616C40.6496 55.4717 41.0399 55.3909 41.4244 55.2192L39.0398 53.8206C38.552 53.9855 38.1387 54.1067 37.8001 54.1841C37.4673 54.2582 37.1143 54.2801 36.7412 54.2498C36.3625 54.2161 35.9923 54.0933 35.6307 53.8812C35.1773 53.6153 34.9621 53.3039 34.9851 52.9471C35.0023 52.5869 35.2691 52.2419 35.7857 51.912L35.0625 51.4879L35.4413 51.2657L36.1731 51.6949C36.6953 51.4425 37.2319 51.3095 37.7829 51.296C38.3339 51.2826 38.8332 51.3768 39.2808 51.5788L38.6438 51.9524C38.397 51.8481 38.0928 51.7942 37.7313 51.7908C37.3754 51.7841 37.0282 51.8531 36.6896 51.9979L38.9881 53.346C39.4587 53.1844 39.8662 53.0666 40.2106 52.9925C40.5549 52.9118 40.9165 52.8882 41.2953 52.9219C41.6741 52.9555 42.05 53.0817 42.423 53.3005ZM36.2161 53.5076C36.5375 53.6961 36.879 53.7819 37.2406 53.7651C37.6021 53.7415 38.0211 53.654 38.4974 53.5025L36.285 52.2049C35.9578 52.4169 35.7799 52.6391 35.7512 52.8714C35.7283 53.1003 35.8832 53.3123 36.2161 53.5076ZM41.8204 55.0072C42.1648 54.7783 42.3341 54.5443 42.3283 54.3053C42.3169 54.063 42.1562 53.8509 41.8462 53.6691C41.5191 53.4773 41.1719 53.3914 40.8046 53.4116C40.443 53.4285 40.0183 53.5126 39.5305 53.6641L41.8204 55.0072Z" fill="#374874"/>
<path d="M33.3021 55.3472L33.3021 55.3472C31.8289 54.4832 31.1173 53.3911 31.0701 52.3373L31.0678 52.285V52.2576H31.0678L31.0678 52.2545C31.0675 52.2341 31.0675 52.2136 31.0678 52.1931L31.0678 52.1931V52.19V48.1606H35.586H35.6182L35.6493 48.1525C37.6916 47.6181 40.0458 47.6181 42.0881 48.1525L42.1192 48.1606H42.1514H46.6639V52.042V52.0502L46.6644 52.0583C46.7389 53.1995 46.0374 54.4075 44.4353 55.3472C42.9104 56.2415 40.8963 56.6959 38.8687 56.6959C36.8411 56.6959 34.8269 56.2415 33.3021 55.3472Z" fill="#FBDBD0" stroke="#374874" stroke-width="0.5"/>
<circle cx="6.59999" cy="6.59999" r="6.34999" transform="matrix(0.862582 0.505917 -0.862582 0.505917 38.8687 41.2325)" fill="white" stroke="#374874" stroke-width="0.5"/>
<path d="M42.423 47.5289C42.6928 47.6871 42.885 47.8773 42.9998 48.0994C43.1089 48.3182 43.1117 48.5522 43.0084 48.8013C42.9051 49.0504 42.6727 49.291 42.3111 49.5233L42.9998 49.9272L42.621 50.1494L41.9237 49.7404C41.367 50.0131 40.7874 50.1578 40.1848 50.1746C39.5764 50.1881 39.0455 50.0753 38.5921 49.8363L39.2378 49.4577C39.519 49.5957 39.8576 49.6731 40.2536 49.6899C40.6496 49.7 41.0399 49.6192 41.4244 49.4476L39.0398 48.0489C38.552 48.2139 38.1387 48.3351 37.8001 48.4125C37.4673 48.4865 37.1143 48.5084 36.7412 48.4781C36.3625 48.4445 35.9923 48.3216 35.6307 48.1095C35.1773 47.8436 34.9621 47.5322 34.9851 47.1754C35.0023 46.8153 35.2691 46.4702 35.7857 46.1404L35.0625 45.7162L35.4413 45.4941L36.1731 45.9232C36.6953 45.6708 37.2319 45.5378 37.7829 45.5244C38.3339 45.5109 38.8332 45.6051 39.2808 45.8071L38.6438 46.1808C38.397 46.0764 38.0928 46.0225 37.7313 46.0192C37.3754 46.0124 37.0282 46.0815 36.6896 46.2262L38.9881 47.5743C39.4587 47.4127 39.8662 47.2949 40.2106 47.2209C40.5549 47.1401 40.9165 47.1165 41.2953 47.1502C41.6741 47.1839 42.05 47.3101 42.423 47.5289ZM36.2161 47.7359C36.5375 47.9244 36.879 48.0102 37.2406 47.9934C37.6021 47.9698 38.0211 47.8823 38.4974 47.7308L36.285 46.4332C35.9578 46.6453 35.7799 46.8674 35.7512 47.0997C35.7283 47.3286 35.8832 47.5407 36.2161 47.7359ZM41.8204 49.2355C42.1648 49.0066 42.3341 48.7727 42.3283 48.5337C42.3169 48.2913 42.1562 48.0792 41.8462 47.8975C41.5191 47.7056 41.1719 47.6198 40.8046 47.64C40.443 47.6568 40.0183 47.7409 39.5305 47.8924L41.8204 49.2355Z" fill="#374874"/>
</svg>
